<?xml version="1.0" encoding="utf-8"?>
<!-- Generator: Adobe Illustrator 27.0.0, SVG Export Plug-In . SVG Version: 6.00 Build 0)  -->
<svg version="1.1" id="Layer_1" xmlns="http://www.w3.org/2000/svg" xmlns:xlink="http://www.w3.org/1999/xlink" x="0px" y="0px"
	 viewBox="0 0 2000 2000" style="enable-background:new 0 0 2000 2000;" xml:space="preserve">
<style type="text/css">
	.st0{fill-rule:evenodd;clip-rule:evenodd;fill:#231F20;}
</style>
<g>
	<path class="st0" d="M407.5,553.7c93.1,0,186.2,0,279.3,0c10.6,8.2,21.4,16.4,32.3,24.3c0.1,124.8,0.3,249.5,0.4,374.3
		c2.7,2,5.3,4.1,7.9,6.2c-93.8,70.6-187.6,141-281.6,211.3c3.4-11.6,7-23.2,10.6-34.8c0.3-181.6,0.3-363.1,0-544.7
		C440,578.2,423.7,566,407.5,553.7z M555.1,660.7c19.3-0.1,38.6,0,57.9,0.2c2.5,1.9,5,3.8,7.5,5.6c0.3,72,0.3,144,0,215.9
		c-21.6,16.5-43.3,32.8-65.1,49.1C555.1,841.2,554.9,751,555.1,660.7z"/>
</g>
<g>
	<path class="st0" d="M759.8,553.7c65.9,0,131.9,0,197.8,0c10.8,8.1,21.5,16.2,32.3,24.3c0.3,140,0.3,279.9,0,419.9
		c-30.9,23.2-61.8,46.4-92.7,69.5c-56.5-42.5-113.1-85-169.6-127.5c-0.3-120.5-0.3-241,0-361.6C738.4,570.3,749.1,562,759.8,553.7z
		 M833.6,660.7c16.7-0.1,33.5,0,50.2,0.2c2.6,1.7,5.1,3.6,7.5,5.6c0.3,88.3,0.3,176.7,0,265c-21.8-16.4-43.5-32.7-65.3-49.1
		c-0.3-71.9-0.3-143.7,0-215.6C828.6,664.9,831.2,662.8,833.6,660.7z"/>
</g>
<g>
	<path class="st0" d="M1031,553.7c65.9,0,131.9,0,197.8,0c10.6,8.2,21.2,16.4,32.1,24.3c0.5,120.7,0.5,241.3,0.2,362
		c-56.4,42.6-112.9,85.1-169.6,127.5c-30.9-23.1-61.7-46.3-92.5-69.5c-0.5-140-0.5-279.9-0.2-419.9
		C1009.5,569.9,1020.2,561.8,1031,553.7z M1104.8,660.7c16.7-0.1,33.5,0,50.2,0.2c2.4,1.9,4.8,3.8,7.3,5.6c0.5,72,0.5,144,0.2,215.9
		c-21.8,16.4-43.5,32.7-65.3,49.1c-0.3-88.3-0.3-176.7,0-265C1099.7,664.5,1102.2,662.6,1104.8,660.7z"/>
</g>
<g>
	<path class="st0" d="M1269.3,553.7c33.6,0,67.2,0,100.8,0c10.1,35.4,20.3,70.8,30.5,106.2c10.2-35.4,20.4-70.8,30.5-106.2
		c50,0,99.9,0,149.9,0c-16.2,12.2-32.4,24.4-48.7,36.7c-0.5,181.8-0.5,363.6-0.2,545.4c3.7,11.6,7.2,23.1,10.4,34.8
		c-36.3-27.6-72.6-55.1-109.1-82.5c2.5-2.1,5.1-4.1,7.7-6c0.5-72.6,0.5-145.2,0.2-217.9c-13.6,44.3-27.1,88.6-40.6,132.9
		c-11.1-50.8-22.1-101.7-32.8-152.6c-0.1,64.6-0.3,129.3-0.4,193.9c-35.4-26.7-70.9-53.4-106.4-80c2.7-2,5.3-4,7.9-6.2
		C1269.3,819.5,1269.4,686.6,1269.3,553.7z"/>
</g>
<g>
	<path class="st0" d="M1126.4,1118.9c0.6,0,1.3,0,1.9,0c-0.7,5.8-1.3,11.6-1.9,17.4c-0.6,0.1-1.1,0-1.5-0.4
		c-0.7-4.1-3.2-6.5-7.3-7.1c-11.8-0.2-23.7-0.3-35.5-0.2c0,8.5,0,17,0,25.5c4.5-0.1,9,0.1,13.5,0.6c7.8,1.5,15.6,3.4,23.2,5.8
		c-8.8,2.6-17.6,4.7-26.7,6.2c-3.3,0.2-6.7,0.3-10,0.2c0,7.9,0,15.7,0,23.6c12.5,0.1,25,0,37.5-0.2c5.3-1.5,8.5-4.9,9.7-10.2
		c0.5,0,1,0,1.5,0c-1.3,6.3-2.6,12.6-3.9,18.9c-23.3,0-46.6,0-69.9,0c0-0.8,0-1.5,0-2.3c3.2-0.8,5.2-2.9,6-6.2
		c0.3-20.6,0.3-41.2,0-61.8c-0.8-3.3-2.8-5.3-6-6.2c0-0.8,0-1.5,0-2.3c22.8,0.1,45.6,0,68.4-0.2
		C1125.8,1119.7,1126.2,1119.4,1126.4,1118.9z"/>
</g>
<g>
	<path class="st0" d="M857.9,1119.3c28.5,0,56.9,0,85.4,0c0.7,6,1.3,12.1,1.9,18.2c-0.6,0.1-1.1,0-1.5-0.4
		c-1.8-6.1-5.9-9.3-12.4-9.5c-7-0.2-13.9-0.3-20.9-0.2c-0.1,21,0,42,0.2,63c1,3.2,3.1,5.2,6.4,6c0.3,0.5,0.5,1.1,0.4,1.7
		c-11.2,0-22.4,0-33.6,0c-0.1-0.6,0-1.2,0.4-1.7c3.8-0.7,6.1-3,6.8-6.8c0.2-20.7,0.3-41.5,0.2-62.2c-7-0.1-13.9,0-20.9,0.2
		c-6.4,0.2-10.6,3.4-12.6,9.5c-0.4,0.3-0.8,0.5-1.4,0.4C856.9,1131.4,857.4,1125.3,857.9,1119.3z"/>
</g>
<g>
	<path class="st0" d="M949.5,1119.3c10.7,0,21.4,0,32.1,0c0.1,0.6,0,1.2-0.4,1.7c-3.4,0.9-5.5,3-6.4,6.4c-0.2,8.6-0.3,17.3-0.2,25.9
		c16.5,0,33,0,49.4,0c0.2-8.9,0-17.8-0.6-26.7c-1.2-3-3.4-4.9-6.6-5.8c-0.2-0.5-0.3-1-0.2-1.5c10.8,0,21.6,0,32.4,0
		c0.1,0.6,0,1.2-0.4,1.7c-3.3,0.8-5.4,2.8-6.4,6c-0.4,10.7-0.6,21.4-0.6,32.1c0.1,9.9,0.1,19.8,0.2,29.7c0.6,4,2.9,6.5,6.8,7.5
		c0.4,0.4,0.5,0.9,0.2,1.4c-10.7,0.4-21.5,0.5-32.3,0.4c-0.1-0.6,0-1.2,0.4-1.7c3.6-1,5.8-3.2,6.8-6.8c0.2-8.8,0.3-17.5,0.2-26.3
		c-16.5,0-33,0-49.4,0c-0.1,9.1,0,18.3,0.2,27.4c1.2,3,3.4,4.9,6.6,5.8c0.3,0.4,0.3,0.8,0,1.2c-10.6,0.4-21.2,0.5-31.9,0.4
		c-0.1-0.6,0-1.2,0.4-1.7c3.6-0.9,5.7-3.1,6.4-6.8c0.3-20.3,0.3-40.7,0-61c-0.6-4-2.8-6.4-6.8-7.3
		C949.5,1120.5,949.5,1119.9,949.5,1119.3z"/>
</g>
<g>
	<path class="st0" d="M829,1152.1c0.4,0,0.6,0.2,0.8,0.6c-3.9,10.1-11.2,15.4-22,15.8c-84.9,0.3-169.7,0.3-254.6,0
		c1.4-0.7,3-1.1,4.6-1.2c20.2-1.9,40.4-3.2,60.6-3.9c61.4-2.3,122.8-4.2,184.3-5.8C811.8,1157.3,820.6,1155.4,829,1152.1z"/>
</g>
<g>
	<path class="st0" d="M1163.5,1152.1c8.7,3.2,17.7,5,27,5.6c61.6,1.6,123.1,3.5,184.6,5.8c20.3,0.7,40.5,2,60.6,3.9
		c1.5,0.1,2.9,0.5,4.2,1.2c-84.7,0.3-169.5,0.3-254.2,0C1174.8,1168,1167.3,1162.6,1163.5,1152.1z"/>
</g>
<g>
	<path class="st0" d="M445.8,1169.9C445.5,1170.1,445.5,1170.1,445.8,1169.9z"/>
</g>
<g>
	<path class="st0" d="M202,1223.5c0-0.1,0-0.3,0-0.4c52.7-0.1,105.3,0,158,0.2c20.1,0.5,39.3,4.9,57.6,13.1
		c26.5,13.3,42.4,34.6,47.7,63.9c3.7,22.6,0.3,43.9-10.4,64.1c-9.2,15.1-21.8,26.5-37.7,34.2c-19.8,8.8-40.5,13.1-62.2,13.1
		c-18.8,0.3-37.6,0.3-56.4-0.2c6.2-7,13.8-11.8,22.8-14.5c12.3-2.9,24.8-4.2,37.5-3.9c35.8-2.2,56.4-20.9,62-56.2
		c2.6-17.7,1.6-35.2-3.1-52.5c-6.4-19.9-19.6-33-39.6-39.2c-5.2-1.5-10.5-2.5-15.8-3.1c-22.7-0.6-45.3-0.8-68-0.6
		c0.1,50.3,0,100.7-0.2,151c-1.3,10.6-7.2,17-17.6,19.1c-12.7,0.2-25.5,0.3-38.2,0.2c-0.1-1.4,0-2.7,0.4-4.1c9-2.3,14.2-8,15.6-17.2
		c0.2-20.9,0.3-41.7,0.2-62.6c-5.2,0.2-10.4-0.2-15.5-1.4c-9.3-1.9-18.6-4.1-27.8-6.6c11.9-3.5,24-6.2,36.3-8.1
		c2.3-0.2,4.6-0.3,7-0.2c0.1-18,0-36.1-0.2-54.1c-1.1-5.4-3.8-9.7-8.3-12.9c-4.7-3.2-9.9-5.4-15.5-6.6c-4.1-0.6-8.2-1.3-12.4-1.9
		C211.2,1234.1,205.8,1229.8,202,1223.5z"/>
</g>
<g>
	<path class="st0" d="M1129.5,1223.2c19.1-0.1,38.3,0,57.4,0.4c29,54.3,58.1,108.5,87.3,162.6c6,10.3,14.5,17.6,25.7,21.8
		c0.4,1.3,0.5,2.7,0.4,4.1c-29.9,0.1-59.7,0-89.6-0.2c-0.5-1.3-0.5-2.6,0-3.9c5.7-1.8,10.5-5,14.5-9.5c3.5-4.7,4.1-9.7,1.9-15.1
		c-6.2-11.7-12.4-23.3-18.7-35c-8.4-0.1-16.7-0.3-25.1-0.4c-17.6-2.8-35-6.7-52.1-11.6c17.7-4.9,35.6-8.8,53.7-11.6
		c3.7-0.1,7.5-0.3,11.2-0.4c-11.2-21-22.4-41.9-33.6-62.8c-22.3,41.6-44.7,83.2-67,124.8c-2,4.5-1.4,8.8,1.5,12.7
		c4,4.3,8.8,7.1,14.5,8.5c0,1.4,0,2.8,0,4.2c-24.5,0.1-48.9,0-73.4-0.2c-0.5-1.3-0.5-2.6,0-3.9c6.2-2,11.7-5.1,16.6-9.3
		c6.7-6.5,12.6-13.6,17.6-21.4c25.3-46.1,50.5-92.2,75.5-138.5c-1.1-2.9-3-5.1-5.8-6.6c-3.8-2.4-8-4-12.4-4.8
		C1129.5,1226,1129.5,1224.6,1129.5,1223.2z"/>
</g>
<g>
	<path class="st0" d="M1361.3,1244.4c23.1-0.4,45.6,3,67.6,10c4.1-0.6,7.2-2.5,9.3-6c1-0.2,2.1-0.3,3.1-0.2
		c-0.7,14.3-1.4,28.6-1.9,42.9c-1.2,0.1-2.3,0-3.5-0.4c-2.2-5.9-5.8-10.7-10.8-14.5c-11.5-7.5-24.1-12-37.9-13.5
		c-17.9-2.9-34.7-0.1-50.6,8.5c-18.3,11.9-27.5,28.9-27.4,51c0.6,28.2,14.1,47,40.6,56.4c11.8,3.6,23.7,4.6,35.9,3.1
		c5.9-0.9,11.5-2.8,16.8-5.6c0.4-9.4,0.2-18.8-0.4-28.2c-3.1-5.7-7.8-9.3-14.1-11c-4.9-1-9.8-2.1-14.7-3.1c-4.3-2-7.6-5-10-9.1
		c29.6-0.3,59.2-0.3,88.8,0c0.1,1.3,0,2.6-0.4,3.9c-3,1-5.6,2.5-7.9,4.6c-1.3,2.6-2.6,5.1-3.9,7.7c-0.5,13.1-0.8,26.3-0.8,39.4
		c-29.5,18.2-61.4,24.1-95.6,17.6c-18.5-3.3-34.9-10.8-49.4-22.4c-19.7-17.6-27.8-39.5-24.1-65.9c4.4-23.8,17.2-41.4,38.4-52.7
		C1325.1,1248.9,1342.8,1244.8,1361.3,1244.4z"/>
</g>
<g>
	<path class="st0" d="M1797,1320.1c0,0.1,0,0.3,0,0.4c-10.3,2.5-20.6,4.9-30.9,7.1c5.1,13.3,5.1,26.6,0.2,40
		c-5.1,11.4-13.4,19.6-24.9,24.5c-12.4,4.9-25.3,7.4-38.6,7.7c-20.3,1.2-40.3-0.9-59.9-6.2c-6.2-1.9-12.1-4.5-17.8-7.7
		c-0.3-0.4-0.5-0.9-0.6-1.4c-0.7-13.7-1.4-27.3-2.1-40.9c1.2,0,2.3,0,3.5,0c6.2,17.7,18.4,28.8,36.7,33.4
		c19.6,4.5,39.2,4.3,58.7-0.4c5.9-1.6,10.8-4.6,14.9-9.1c4.3-6.5,4.3-12.9,0-19.3c-3.9-3.5-8.5-5.6-13.7-6.4
		c-2.4-0.5-4.9-0.8-7.3-1.2c-12.9-0.9-25.8-1.8-38.6-2.7c-9.9-0.8-19.4-3-28.6-6.6c-15.9-7.7-23.5-20.4-22.8-38.2
		c-0.4-19.9,8.3-33.9,26.3-42.1c8.9-3.5,18.2-5.6,27.8-6.2c12.9-0.8,25.8-0.6,38.6,0.8c11.5,0.9,22.2,4.3,32.1,10.2
		c1.1-1.4,2.1-2.9,3.1-4.4c1-0.2,2.1-0.3,3.1-0.2c0.1,15.8,0,31.6-0.4,47.3c-0.9,0.3-1.7,0.2-2.5-0.2c-0.6-10-5-17.8-13.3-23.4
		c-9.4-5.7-19.5-9.1-30.5-10c-10.3-0.8-20.6-0.6-30.9,0.4c-5.2,0.5-10.3,1.8-15.1,3.9c-8.1,4.9-10.1,11.7-6,20.3
		c4.1,4.4,9.2,7.1,15.3,7.9c5.1,1,10.3,1.6,15.5,1.9c14,0.5,27.9,1.8,41.7,3.9c8.2,1.4,15.8,4.2,22.8,8.5c5.3,0,10.6,0.5,15.8,1.5
		C1778,1315.3,1787.6,1317.5,1797,1320.1z"/>
</g>
<g>
	<path class="st0" d="M1604.2,1245.6c1,0,2.1,0,3.1,0c-1,11.5-2.2,22.9-3.5,34.4c-1.2,0-2.3,0-3.5,0c-0.2-6.4-3.3-10.7-9.3-12.9
		c-1.5-0.5-3.1-0.9-4.6-1.2c-23.6-0.6-47.1-0.8-70.7-0.6c0,15.6,0,31.2,0,46.7c7.7-0.1,15.5,0,23.2,0.6c16.8,2.9,33.4,6.7,49.8,11.2
		c-18.3,5.5-37,9.5-56,12c-5.7,0.2-11.3,0.3-17,0.2c-0.1,14.2,0,28.3,0.2,42.5c0.3,0.2,0.6,0.4,1,0.6c22.9,0.3,45.8,0.3,68.8,0
		c12.6-1,20.5-7.6,23.6-19.9c1,0,2.1,0,3.1,0c-2.5,12.4-5.2,24.6-8.1,36.9c-46.1,0.3-92.2,0.3-138.3,0c-0.4-1.1-0.5-2.2-0.2-3.3
		c4.7-1.5,8.3-4.3,10.8-8.5c0.7-1.6,1.3-3.3,1.5-5c0.4-19,0.6-38.1,0.6-57.2c0.1-19.1-0.1-38.1-0.6-57.2
		c-1.4-6.8-5.5-11.1-12.2-12.9c-0.4-1.2-0.5-2.4-0.4-3.7c44.8,0.1,89.6,0,134.4-0.2C1601.8,1247.8,1603.2,1247,1604.2,1245.6z"/>
</g>
<g>
	<path class="st0" d="M879.9,1445.3c-4.5,0-9,0-13.5,0c-17.4-2.1-33.8-7.6-49.1-16.4c-16.4-9.6-31.6-20.8-45.6-33.6
		c-6.8-6.2-13.3-12.7-19.5-19.5c-17.8-19.3-35.5-38.6-53.3-57.9c-0.2-1.3-0.3-2.6-0.2-3.9c11.5,0.1,22.9,0,34.4-0.2
		c21.5-1.5,30-12.8,25.3-33.8c-3-7-8.2-11.3-15.6-12.9c-3.4-0.8-6.9-1.4-10.4-1.5c-12.1-0.3-24.2-0.3-36.3,0
		c-0.7,0.2-1.2,0.6-1.4,1.4c-0.6,36.5-0.8,73.1-0.4,109.7c0.1,5,2,9.2,5.6,12.6c2.2,1.5,4.6,2.7,7.1,3.7c0.3,1.1,0.2,2.2-0.2,3.3
		c-45.7,0.2-91.4,0.3-137.1,0.2c0-1.3,0-2.6,0-3.9c6.4-1.3,11.1-4.8,14.1-10.4c0.3-2.1,0.2-4.2-0.4-6.2
		c-5.9-11.2-11.7-22.4-17.6-33.6c-4.9-0.3-9.8-0.5-14.7-0.6c-11.9-1.9-23.6-4.5-35.2-7.9c13.4-4.1,27-6.9,40.9-8.5
		c-6.9-13.5-13.9-26.8-21.1-40.2c-16.8,30.9-33.3,61.9-49.4,93.1c-0.4,2.5,0.1,4.9,1.5,7c3.2,3.6,7.1,6,11.8,7.3
		c0.4,1.3,0.5,2.5,0.4,3.9c-19.4,0-38.9,0-58.3,0c0-1.3,0-2.6,0-3.9c6.2-0.8,11.3-3.6,15.3-8.5c1.2-1.5,2.3-3.1,3.5-4.6
		c20.8-37.8,41.4-75.7,62-113.6c-3.1-7.2-8.5-11.7-16.2-13.5c0-1.3,0-2.6,0-3.9c17-0.1,33.9,0,50.8,0.4c22.7,42,45.3,84,68,125.9
		c3.2,6.2,7.7,11.3,13.3,15.3c2.2,1.2,4.5,2,7,2.5c7.6-2.5,11.7-7.8,12.2-15.8c0.2-15.5,0.3-30.9,0.2-46.4
		c-11.2-2-22.3-4.5-33.2-7.5c10.9-3.1,21.9-5.7,33-7.9c0.3-13.4,0.3-26.8,0-40.2c-1-4.6-3.5-8.2-7.5-10.6c-2.6-1.5-5.3-2.6-8.1-3.5
		c-4.5-0.9-9-1.8-13.5-2.7c-4.6-1.9-8-5-10.4-9.3c44.2-0.3,88.3-0.3,132.5,0c13.7,0.6,26,4.9,37.1,12.7c11.9,10.8,15.7,24,11.4,39.6
		c-3.3,8.9-9.1,15.8-17.2,20.7c-7.9,4.3-16.2,7.1-25.1,8.5c19.6,22.3,40,44.1,61,65.3c18,16.6,38.3,29.7,61,39.4
		c5.7,2.3,11.3,4.6,17,7C890.6,1443.5,885.3,1444.7,879.9,1445.3z"/>
</g>
<g>
	<path class="st0" d="M825.9,1248.3c20.7,0,41.5,0,62.2,0c0.1,1.3,0,2.5-0.4,3.7c-6.7,1.8-10.8,6.1-12.2,12.9
		c-0.6,16-0.8,31.9-0.6,47.9c8.4,0.1,16.7,0,25.1-0.2c15-16.5,30-33.1,45-49.6c3.5-6.5,1.6-10.1-5.6-10.8c0-1.3,0-2.6,0-3.9
		c18.3,0,36.6,0,54.9,0c0.1,1.3,0,2.5-0.4,3.7c-5,1.8-9.8,4.1-14.3,7c-4.8,3.3-9.4,6.8-13.9,10.4c-13.7,15.1-27.3,30.3-40.6,45.8
		c21.6,21.5,43.2,42.9,64.9,64.3c7,6.1,15,10.4,24,12.9c0,1.3,0,2.6,0,3.9c-20.9,0.1-41.7,0-62.6-0.2
		c-22.3-22.8-44.6-45.6-66.8-68.4c-3.2-0.3-6.3-0.3-9.5,0.2c-0.3,16.5-0.3,33,0,49.4c0.7,8.2,5,13.2,12.9,15.1
		c0.1,1.3,0,2.5-0.4,3.7c-20.6,0.2-41.2,0.3-61.8,0.2c-0.1-1.3,0-2.6,0.4-3.9c6.2-1.8,10.1-5.8,11.8-12c0.6-16.9,0.8-33.7,0.6-50.6
		c-10.7-1.8-21.2-4.2-31.7-7.1c10.3-3.1,20.7-5.6,31.3-7.5c0.1-8,0.3-16,0.4-24c0.1-8.9-0.1-17.8-0.6-26.7
		c-1.5-6.6-5.6-10.7-12.2-12.4C825.9,1250.8,825.9,1249.6,825.9,1248.3z"/>
</g>
</svg>
